<svg width="496" height="496" viewBox="0 0 496 496" fill="none" xmlns="http://www.w3.org/2000/svg">
<rect width="496" height="496" rx="25" fill="black" style="fill:black;fill-opacity:1;"/>
<path d="M106.752 181.59H145.881C156.463 181.59 164.584 182.421 170.244 184.082C175.966 185.743 180.242 188.143 183.072 191.28C185.963 194.418 187.901 198.232 188.886 202.724C189.932 207.153 190.455 214.044 190.455 223.396V236.408C190.455 245.944 189.47 252.896 187.501 257.264C185.533 261.632 181.903 264.985 176.612 267.323C171.382 269.661 164.522 270.83 156.032 270.83H145.604V331H106.752V181.59ZM145.604 207.153V245.175C146.711 245.236 147.665 245.267 148.465 245.267C152.033 245.267 154.494 244.406 155.848 242.683C157.263 240.899 157.97 237.238 157.97 231.701V219.427C157.97 214.321 157.17 210.999 155.571 209.46C153.971 207.922 150.649 207.153 145.604 207.153ZM251.702 181.59L273.943 331H234.168L232.23 304.145H218.295L215.988 331H175.752L195.501 181.59H251.702ZM231.123 277.659C229.154 260.74 227.185 239.853 225.217 214.998C221.279 243.544 218.818 264.432 217.834 277.659H231.123ZM383.456 181.59V331H349.495V230.132L335.929 331H311.843L297.539 232.439V331H263.578V181.59H313.873C315.35 190.573 316.918 201.155 318.58 213.336L323.932 251.358L332.792 181.59H383.456Z" fill="white" style="fill:white;fill-opacity:1;"/>
</svg>
