<svg xmlns="http://www.w3.org/2000/svg" width="20" height="20" viewBox="0 0 20 20"><title>file-clip</title><g fill="#ffffff"><path d="m4,7h3c.552,0,1-.448,1-1v-3" stroke="#ffffff" stroke-linejoin="round" stroke-width="2" fill="#ffffff"></path><path d="m16,8.943v-2.943c0-1.657-1.343-3-3-3h-4.586c-.265,0-.52.105-.707.293l-3.414,3.414c-.188.188-.293.442-.293.707v6.586c0,1.657,1.343,3,3,3h1.24" fill="none" stroke="#ffffff" stroke-linecap="round" stroke-linejoin="round" stroke-width="2"></path><path d="m14,14v-1.5c0-.828-.672-1.5-1.5-1.5h0c-.828,0-1.5.672-1.5,1.5v1.5c0,1.657,1.343,3,3,3h0c1.657,0,3-1.343,3-3v-1" fill="none" stroke="#ffffff" stroke-linecap="round" stroke-linejoin="round" stroke-width="2"></path></g></svg>