<svg width="5151" height="5151" viewBox="0 0 5151 5151" fill="none" xmlns="http://www.w3.org/2000/svg">
<path d="M717.423 2015.68C692.159 1990.02 679.527 1977.19 678.721 1966.19C678.022 1956.65 681.919 1947.34 689.211 1941.14C697.613 1934 715.617 1934 751.626 1934H2346.67C2363.89 1934 2372.5 1934 2379.01 1937.38C2384.73 1940.36 2389.34 1945.09 2392.16 1950.89C2395.36 1957.49 2395.12 1966.1 2394.65 1983.31L2389.27 2180.31C2388.83 2196.7 2388.6 2204.89 2385.27 2211.13C2382.34 2216.62 2377.78 2221.06 2372.21 2223.84C2365.88 2227 2357.68 2227 2341.29 2227H945.6C938.184 2227 934.477 2227 930.992 2226.15C927.902 2225.41 924.951 2224.17 922.249 2222.49C919.202 2220.6 916.6 2217.96 911.397 2212.68L717.423 2015.68Z" fill="#181818"/>
<path d="M4434.58 2015.68C4459.84 1990.02 4472.47 1977.19 4473.28 1966.19C4473.98 1956.65 4470.08 1947.34 4462.79 1941.14C4454.39 1934 4436.38 1934 4400.37 1934H2805.33C2788.11 1934 2779.5 1934 2772.99 1937.38C2767.27 1940.36 2762.66 1945.09 2759.84 1950.89C2756.64 1957.49 2756.88 1966.1 2757.35 1983.31L2762.73 2180.31C2763.17 2196.7 2763.4 2204.89 2766.73 2211.13C2769.66 2216.62 2774.22 2221.06 2779.79 2223.84C2786.12 2227 2794.32 2227 2810.71 2227H4206.4C4213.82 2227 4217.52 2227 4221.01 2226.15C4224.1 2225.41 4227.05 2224.17 4229.75 2222.49C4232.8 2220.6 4235.4 2217.96 4240.6 2212.68L4434.58 2015.68Z" fill="#181818"/>
<path d="M417.254 2318.23C393.815 2301.11 405.923 2264 434.947 2264H4709.75C4739.45 2264 4751.09 2302.53 4726.37 2318.98L4376.17 2551.98C4371.24 2555.25 4365.46 2557 4359.55 2557H753.998C747.637 2557 741.441 2554.98 736.305 2551.23L417.254 2318.23Z" fill="#626262"/>
<path d="M1391.89 2641.97C1377.09 2622.19 1391.21 2594 1415.91 2594H3732.55C3757.88 2594 3771.81 2623.46 3755.73 2643.04L3564.4 2876.04C3558.7 2882.98 3550.19 2887 3541.21 2887H1590.22C1580.77 2887 1571.87 2882.54 1566.2 2874.97L1391.89 2641.97Z" fill="#181818"/>
<path d="M1894.91 2965.81C1886.43 2946.02 1900.95 2924 1922.49 2924H3226.75C3248.73 2924 3263.25 2946.87 3253.89 2966.76L3144.35 3199.76C3139.4 3210.28 3128.82 3217 3117.2 3217H2022.29C2010.28 3217 1999.44 3209.85 1994.71 3198.81L1894.91 2965.81Z" fill="#181818"/>
</svg>
