<svg width="1978" height="1593" viewBox="0 0 1978 1593" fill="none" xmlns="http://www.w3.org/2000/svg">
<g clip-path="url(#clip0_1614_540)">
<rect x="602" y="376" width="773" height="773" rx="20" fill="#576D49" style="fill:#576D49;fill:color(display-p3 0.3408 0.4280 0.2866);fill-opacity:1;"/>
<path d="M956.5 803C956.5 799.134 953.366 796 949.5 796H767C763.134 796 760 792.866 760 789V737.5C760 733.634 763.134 730.5 767 730.5H949.5C953.366 730.5 956.5 727.366 956.5 723.5V541C956.5 537.134 959.634 534 963.5 534H1015C1018.87 534 1022 537.134 1022 541V723.5C1022 727.366 1025.13 730.5 1029 730.5H1211.5C1215.37 730.5 1218.5 733.634 1218.5 737.5V789C1218.5 792.866 1215.37 796 1211.5 796H1029C1025.13 796 1022 799.134 1022 803V985.5C1022 989.366 1018.87 992.5 1015 992.5H963.5C959.634 992.5 956.5 989.366 956.5 985.5V803Z" fill="#1D1B20" style="fill:#1D1B20;fill:color(display-p3 0.1137 0.1059 0.1255);fill-opacity:1;"/>
</g>
<defs>
<clipPath id="clip0_1614_540">
<rect x="602" y="376" width="773" height="773" rx="20" fill="white" style="fill:white;fill-opacity:1;"/>
</clipPath>
</defs>
</svg>
