<svg width="1208" height="821" viewBox="0 0 1208 821" fill="none" xmlns="http://www.w3.org/2000/svg">
<rect x="261" y="163" width="687" height="496" rx="15" fill="#250505" style="fill:#250505;fill:color(display-p3 0.1468 0.0184 0.0184);fill-opacity:1;"/>
<rect x="261" y="163" width="687" height="496" rx="15" fill="#030303" fill-opacity="0.4" style="fill:#030303;fill:color(display-p3 0.0127 0.0127 0.0127);fill-opacity:0.4;"/>
<path d="M298.156 206.859C301.156 206.859 303.062 205.062 303.141 202.156H305.922C305.922 206.516 302.766 209.469 298.156 209.469C292.859 209.469 289.781 205.891 289.781 199.734V195.719C289.781 189.562 292.859 185.984 298.156 185.984C302.906 185.984 305.844 188.875 305.938 193.688H303.141C303.047 190.641 301.031 188.594 298.141 188.594C294.5 188.594 292.594 191.047 292.594 195.719V199.734C292.594 204.406 294.5 206.859 298.156 206.859ZM310.469 209V185.391H313.031V195.047H313.25C314.141 192.938 316.094 191.75 318.688 191.75C322.375 191.75 324.375 193.969 324.375 198.016V209H321.719V198.688C321.719 195.641 320.469 194.188 317.812 194.188C315.016 194.188 313.125 196.141 313.125 199.031V209H310.469ZM335.484 209.297C332.25 209.297 330.094 207.266 330.094 204.188C330.094 201.188 332.25 199.406 336.109 199.203L340.766 198.969V197.438C340.766 195.312 339.469 194.141 337.109 194.141C335.156 194.141 333.781 194.969 333.344 196.422H330.734C331.047 193.703 333.672 191.844 337.141 191.844C341.125 191.844 343.406 193.875 343.406 197.406V209.016H340.875V206.469H340.609C339.797 208.281 337.953 209.297 335.484 209.297ZM336.25 206.969C338.812 206.969 340.766 205.266 340.766 203V201L336.406 201.203C334.031 201.312 332.781 202.328 332.781 204.094C332.781 205.875 334.109 206.969 336.25 206.969ZM354.094 187.5H356.719V192.094H363.594V194.359H356.75V203.922C356.75 205.766 358.047 206.766 360.438 206.766C361.391 206.766 363.094 206.719 363.547 206.672V208.922C363.125 209 361.062 209.078 360.25 209.078C356.047 209.078 354.094 207.484 354.094 203.953V194.359H349.578V192.094H354.094V187.5ZM376.094 201.406V206.875H381.344V209H370.078V206.875H373.5V194.172H369.734V192.047H376.062V196.375H376.406C377.031 193.234 379.141 191.609 382.406 191.609C383.375 191.609 384.297 191.75 384.859 191.984V194.969C384.078 194.688 382.984 194.5 382.062 194.5C378.312 194.5 376.094 197.094 376.094 201.406ZM396.547 209.312C392.062 209.312 389.203 206.391 389.203 201.812V199.25C389.203 194.672 392.062 191.75 396.547 191.75C401.031 191.75 403.891 194.672 403.891 199.25V201.812C403.891 206.391 401.031 209.312 396.547 209.312ZM396.547 194.094C393.641 194.094 391.828 196.156 391.828 199.484V201.562C391.828 204.906 393.641 206.953 396.547 206.953C399.453 206.953 401.266 204.906 401.266 201.562V199.484C401.266 196.156 399.453 194.094 396.547 194.094ZM416.328 209.312C411.844 209.312 408.984 206.391 408.984 201.812V199.25C408.984 194.672 411.844 191.75 416.328 191.75C420.812 191.75 423.672 194.672 423.672 199.25V201.812C423.672 206.391 420.812 209.312 416.328 209.312ZM416.328 194.094C413.422 194.094 411.609 196.156 411.609 199.484V201.562C411.609 204.906 413.422 206.953 416.328 206.953C419.234 206.953 421.047 204.906 421.047 201.562V199.484C421.047 196.156 419.234 194.094 416.328 194.094ZM444.281 196.516V209H441.891V197.297C441.891 195.234 441.141 194.156 439.719 194.156C438.234 194.156 437.328 195.453 437.328 197.562V209H434.953V197.281C434.953 195.234 434.203 194.156 432.766 194.156C431.266 194.156 430.328 195.453 430.328 197.562V209H427.938V192.047H430.312V194.438H430.594C431.016 192.734 432.234 191.734 433.828 191.734C435.422 191.734 436.547 192.719 436.906 194.391H437.188C437.625 192.766 438.984 191.734 440.688 191.734C443.047 191.734 444.281 193.375 444.281 196.516Z" fill="white" style="fill:white;fill-opacity:1;"/>
<rect x="285" y="227" width="639" height="415" rx="15" fill="black" fill-opacity="0.6" style="fill:black;fill-opacity:0.6;"/>
<path d="M300.699 253V238.908H302.457V253H300.699ZM305.621 253V242.561H307.32V244.113H307.457C307.724 243.573 308.108 243.15 308.609 242.844C309.117 242.531 309.758 242.375 310.533 242.375C311.699 242.375 312.597 242.714 313.229 243.391C313.86 244.061 314.176 245.008 314.176 246.232V253H312.477V246.623C312.477 245.699 312.278 245.012 311.881 244.562C311.484 244.107 310.872 243.879 310.045 243.879C309.492 243.879 309.01 243.999 308.6 244.24C308.196 244.481 307.88 244.823 307.652 245.266C307.431 245.702 307.32 246.223 307.32 246.828V253H305.621ZM320.904 253.186C320.019 253.186 319.247 252.964 318.59 252.521C317.932 252.072 317.421 251.444 317.057 250.637C316.692 249.823 316.51 248.872 316.51 247.785V247.766C316.51 246.678 316.692 245.731 317.057 244.924C317.421 244.117 317.932 243.492 318.59 243.049C319.247 242.6 320.016 242.375 320.895 242.375C321.376 242.375 321.829 242.453 322.252 242.609C322.675 242.759 323.053 242.971 323.385 243.244C323.717 243.518 323.977 243.846 324.166 244.23H324.303V238.439H326.002V253H324.303V251.311H324.166C323.958 251.701 323.691 252.036 323.365 252.316C323.04 252.596 322.669 252.811 322.252 252.961C321.842 253.111 321.393 253.186 320.904 253.186ZM321.275 251.682C321.9 251.682 322.441 251.525 322.896 251.213C323.359 250.894 323.714 250.441 323.961 249.855C324.208 249.27 324.332 248.579 324.332 247.785V247.766C324.332 246.971 324.205 246.285 323.951 245.705C323.704 245.119 323.352 244.67 322.896 244.357C322.441 244.038 321.9 243.879 321.275 243.879C320.65 243.879 320.11 244.035 319.654 244.348C319.199 244.66 318.85 245.106 318.609 245.686C318.368 246.265 318.248 246.958 318.248 247.766V247.785C318.248 248.592 318.368 249.289 318.609 249.875C318.85 250.454 319.199 250.9 319.654 251.213C320.11 251.525 320.65 251.682 321.275 251.682ZM329.098 253V242.561H330.797V253H329.098ZM329.957 240.607C329.645 240.607 329.374 240.493 329.146 240.266C328.919 240.038 328.805 239.768 328.805 239.455C328.805 239.136 328.919 238.866 329.146 238.645C329.374 238.423 329.645 238.312 329.957 238.312C330.276 238.312 330.546 238.423 330.768 238.645C330.989 238.866 331.1 239.136 331.1 239.455C331.1 239.768 330.989 240.038 330.768 240.266C330.546 240.493 330.276 240.607 329.957 240.607ZM336.744 253L332.877 242.561H334.674L337.535 251.154H337.662L340.533 242.561H342.32L338.463 253H336.744ZM344.41 253V242.561H346.109V253H344.41ZM345.27 240.607C344.957 240.607 344.687 240.493 344.459 240.266C344.231 240.038 344.117 239.768 344.117 239.455C344.117 239.136 344.231 238.866 344.459 238.645C344.687 238.423 344.957 238.312 345.27 238.312C345.589 238.312 345.859 238.423 346.08 238.645C346.301 238.866 346.412 239.136 346.412 239.455C346.412 239.768 346.301 240.038 346.08 240.266C345.859 240.493 345.589 240.607 345.27 240.607ZM352.975 253.186C352.089 253.186 351.318 252.964 350.66 252.521C350.003 252.072 349.492 251.444 349.127 250.637C348.762 249.823 348.58 248.872 348.58 247.785V247.766C348.58 246.678 348.762 245.731 349.127 244.924C349.492 244.117 350.003 243.492 350.66 243.049C351.318 242.6 352.086 242.375 352.965 242.375C353.447 242.375 353.899 242.453 354.322 242.609C354.745 242.759 355.123 242.971 355.455 243.244C355.787 243.518 356.048 243.846 356.236 244.23H356.373V238.439H358.072V253H356.373V251.311H356.236C356.028 251.701 355.761 252.036 355.436 252.316C355.11 252.596 354.739 252.811 354.322 252.961C353.912 253.111 353.463 253.186 352.975 253.186ZM353.346 251.682C353.971 251.682 354.511 251.525 354.967 251.213C355.429 250.894 355.784 250.441 356.031 249.855C356.279 249.27 356.402 248.579 356.402 247.785V247.766C356.402 246.971 356.275 246.285 356.021 245.705C355.774 245.119 355.423 244.67 354.967 244.357C354.511 244.038 353.971 243.879 353.346 243.879C352.721 243.879 352.18 244.035 351.725 244.348C351.269 244.66 350.921 245.106 350.68 245.686C350.439 246.265 350.318 246.958 350.318 247.766V247.785C350.318 248.592 350.439 249.289 350.68 249.875C350.921 250.454 351.269 250.9 351.725 251.213C352.18 251.525 352.721 251.682 353.346 251.682ZM364.625 253.186C363.844 253.186 363.183 253.036 362.643 252.736C362.109 252.43 361.705 251.988 361.432 251.408C361.165 250.829 361.031 250.135 361.031 249.328V242.561H362.73V248.938C362.73 249.855 362.916 250.542 363.287 250.998C363.658 251.454 364.257 251.682 365.084 251.682C365.533 251.682 365.93 251.613 366.275 251.477C366.62 251.34 366.913 251.145 367.154 250.891C367.395 250.637 367.574 250.327 367.691 249.963C367.815 249.598 367.877 249.188 367.877 248.732V242.561H369.576V253H367.877V251.457H367.75C367.581 251.815 367.35 252.124 367.057 252.385C366.764 252.645 366.412 252.844 366.002 252.98C365.598 253.117 365.139 253.186 364.625 253.186ZM375.426 253.186C374.762 253.186 374.166 253.059 373.639 252.805C373.118 252.551 372.704 252.193 372.398 251.73C372.099 251.262 371.949 250.712 371.949 250.08V250.061C371.949 249.442 372.096 248.915 372.389 248.479C372.688 248.036 373.121 247.688 373.688 247.434C374.254 247.18 374.941 247.03 375.748 246.984L379.586 246.76V248.107L375.953 248.332C375.178 248.378 374.605 248.544 374.234 248.83C373.87 249.117 373.688 249.517 373.688 250.031V250.051C373.688 250.572 373.883 250.979 374.273 251.271C374.671 251.564 375.175 251.711 375.787 251.711C376.354 251.711 376.858 251.597 377.301 251.369C377.75 251.141 378.102 250.829 378.355 250.432C378.609 250.035 378.736 249.589 378.736 249.094V245.881C378.736 245.236 378.541 244.742 378.15 244.396C377.76 244.051 377.18 243.879 376.412 243.879C375.774 243.879 375.253 243.999 374.85 244.24C374.446 244.475 374.179 244.803 374.049 245.227L374.039 245.266H372.359L372.369 245.197C372.447 244.644 372.665 244.156 373.023 243.732C373.382 243.309 373.854 242.977 374.439 242.736C375.025 242.495 375.699 242.375 376.461 242.375C377.301 242.375 378.017 242.515 378.609 242.795C379.208 243.068 379.661 243.465 379.967 243.986C380.279 244.501 380.436 245.116 380.436 245.832V253H378.736V251.428H378.609C378.395 251.799 378.128 252.118 377.809 252.385C377.49 252.645 377.132 252.844 376.734 252.98C376.337 253.117 375.901 253.186 375.426 253.186ZM383.414 253V238.439H385.113V253H383.414ZM391.754 253.186C390.973 253.186 390.283 253.065 389.684 252.824C389.091 252.583 388.616 252.245 388.258 251.809C387.906 251.372 387.698 250.861 387.633 250.275V250.256H389.361V250.275C389.498 250.731 389.768 251.096 390.172 251.369C390.582 251.636 391.126 251.77 391.803 251.77C392.278 251.77 392.691 251.704 393.043 251.574C393.395 251.438 393.671 251.249 393.873 251.008C394.075 250.767 394.176 250.49 394.176 250.178V250.158C394.176 249.8 394.039 249.501 393.766 249.26C393.492 249.012 393.04 248.811 392.408 248.654L390.777 248.264C390.126 248.107 389.589 247.906 389.166 247.658C388.743 247.404 388.43 247.095 388.229 246.73C388.027 246.359 387.926 245.926 387.926 245.432V245.422C387.926 244.836 388.092 244.315 388.424 243.859C388.762 243.397 389.225 243.036 389.811 242.775C390.396 242.508 391.057 242.375 391.793 242.375C392.535 242.375 393.186 242.495 393.746 242.736C394.312 242.971 394.765 243.303 395.104 243.732C395.449 244.162 395.654 244.663 395.719 245.236L395.729 245.266H394.068V245.246C393.964 244.816 393.717 244.468 393.326 244.201C392.936 243.928 392.424 243.791 391.793 243.791C391.376 243.791 391.008 243.856 390.689 243.986C390.37 244.117 390.12 244.299 389.938 244.533C389.755 244.761 389.664 245.031 389.664 245.344V245.363C389.664 245.591 389.723 245.799 389.84 245.988C389.964 246.171 390.152 246.33 390.406 246.467C390.66 246.604 390.986 246.721 391.383 246.818L393.004 247.209C394.007 247.45 394.742 247.795 395.211 248.244C395.68 248.687 395.914 249.283 395.914 250.031V250.051C395.914 250.669 395.732 251.216 395.367 251.691C395.003 252.16 394.508 252.528 393.883 252.795C393.258 253.055 392.548 253.186 391.754 253.186Z" fill="white" style="fill:white;fill-opacity:1;"/>
<path d="M511 227H909C917.284 227 924 233.716 924 242V265H511V227Z" fill="#191818" style="fill:#191818;fill:color(display-p3 0.0973 0.0958 0.0958);fill-opacity:1;"/>
<path d="M525 608C525 603.35 525 601.025 525.511 599.118C526.898 593.941 530.941 589.898 536.118 588.511C538.025 588 540.35 588 545 588H889C893.65 588 895.975 588 897.882 588.511C903.059 589.898 907.102 593.941 908.489 599.118C909 601.025 909 603.35 909 608C909 612.65 909 614.975 908.489 616.882C907.102 622.059 903.059 626.102 897.882 627.489C895.975 628 893.65 628 889 628H545C540.35 628 538.025 628 536.118 627.489C530.941 626.102 526.898 622.059 525.511 616.882C525 614.975 525 612.65 525 608Z" fill="#292929" fill-opacity="0.67" style="fill:#292929;fill:color(display-p3 0.1623 0.1623 0.1623);fill-opacity:0.67;"/>
<rect x="746" y="501" width="163" height="77" rx="15" fill="#050925" style="fill:#050925;fill:color(display-p3 0.0212 0.0357 0.1448);fill-opacity:1;"/>
<rect x="523" y="424" width="163" height="77" rx="15" fill="#260404" style="fill:#260404;fill:color(display-p3 0.1502 0.0160 0.0160);fill-opacity:1;"/>
<path d="M529.717 253.312C529.105 253.312 528.561 253.225 528.086 253.049C527.611 252.873 527.207 252.626 526.875 252.307C526.543 251.988 526.283 251.613 526.094 251.184C525.905 250.754 525.791 250.285 525.752 249.777L525.742 249.641H527.5L527.51 249.738C527.549 250.09 527.653 250.415 527.822 250.715C527.992 251.008 528.232 251.245 528.545 251.428C528.857 251.604 529.245 251.691 529.707 251.691C530.488 251.691 531.084 251.467 531.494 251.018C531.904 250.562 532.109 249.904 532.109 249.045V238.908H533.867V249.064C533.867 249.95 533.701 250.712 533.369 251.35C533.044 251.981 532.572 252.466 531.953 252.805C531.335 253.143 530.589 253.312 529.717 253.312ZM541.338 253.186C540.355 253.186 539.502 252.967 538.779 252.531C538.057 252.095 537.497 251.473 537.1 250.666C536.709 249.859 536.514 248.898 536.514 247.785V247.766C536.514 246.652 536.709 245.692 537.1 244.885C537.497 244.077 538.057 243.459 538.779 243.029C539.502 242.593 540.352 242.375 541.328 242.375C542.318 242.375 543.171 242.593 543.887 243.029C544.609 243.459 545.166 244.077 545.557 244.885C545.954 245.692 546.152 246.652 546.152 247.766V247.785C546.152 248.898 545.954 249.859 545.557 250.666C545.166 251.473 544.609 252.095 543.887 252.531C543.171 252.967 542.321 253.186 541.338 253.186ZM541.338 251.682C541.982 251.682 542.533 251.529 542.988 251.223C543.451 250.91 543.802 250.464 544.043 249.885C544.29 249.305 544.414 248.605 544.414 247.785V247.766C544.414 246.945 544.29 246.245 544.043 245.666C543.802 245.087 543.451 244.644 542.988 244.338C542.533 244.032 541.979 243.879 541.328 243.879C540.684 243.879 540.13 244.032 539.668 244.338C539.212 244.644 538.861 245.087 538.613 245.666C538.372 246.245 538.252 246.945 538.252 247.766V247.785C538.252 248.605 538.372 249.305 538.613 249.885C538.861 250.464 539.212 250.91 539.668 251.223C540.13 251.529 540.687 251.682 541.338 251.682ZM548.672 253V238.439H550.371V244.152H550.498C550.771 243.586 551.162 243.15 551.67 242.844C552.178 242.531 552.819 242.375 553.594 242.375C554.362 242.375 555.02 242.531 555.566 242.844C556.113 243.156 556.533 243.609 556.826 244.201C557.119 244.787 557.266 245.493 557.266 246.32V253H555.566V246.711C555.566 245.767 555.358 245.061 554.941 244.592C554.531 244.117 553.913 243.879 553.086 243.879C552.539 243.879 552.061 243.999 551.65 244.24C551.247 244.481 550.931 244.823 550.703 245.266C550.482 245.708 550.371 246.232 550.371 246.838V253H548.672ZM560.117 253V242.561H561.816V244.113H561.953C562.22 243.573 562.604 243.15 563.105 242.844C563.613 242.531 564.255 242.375 565.029 242.375C566.195 242.375 567.093 242.714 567.725 243.391C568.356 244.061 568.672 245.008 568.672 246.232V253H566.973V246.623C566.973 245.699 566.774 245.012 566.377 244.562C565.98 244.107 565.368 243.879 564.541 243.879C563.988 243.879 563.506 243.999 563.096 244.24C562.692 244.481 562.376 244.823 562.148 245.266C561.927 245.702 561.816 246.223 561.816 246.828V253H560.117Z" fill="white" style="fill:white;fill-opacity:1;"/>
<path d="M574.65 244.176L571.979 255.109H571L573.672 244.176H574.65ZM577.34 253.111C576.941 253.111 576.582 253.035 576.262 252.883C575.945 252.73 575.693 252.514 575.506 252.232C575.322 251.951 575.23 251.619 575.23 251.236V251.225C575.23 250.85 575.32 250.529 575.5 250.264C575.68 249.994 575.941 249.783 576.285 249.631C576.629 249.479 577.045 249.389 577.533 249.361L579.854 249.221V250.035L577.656 250.176C577.176 250.203 576.824 250.303 576.602 250.475C576.383 250.646 576.273 250.889 576.273 251.201V251.213C576.273 251.533 576.395 251.783 576.637 251.963C576.879 252.139 577.184 252.227 577.551 252.227C577.898 252.227 578.207 252.158 578.477 252.021C578.746 251.881 578.957 251.691 579.109 251.453C579.266 251.215 579.344 250.945 579.344 250.645V248.676C579.344 248.285 579.225 247.988 578.986 247.785C578.752 247.578 578.398 247.475 577.926 247.475C577.547 247.475 577.236 247.543 576.994 247.68C576.752 247.812 576.59 248.002 576.508 248.248L576.502 248.266H575.482L575.488 248.23C575.543 247.898 575.68 247.609 575.898 247.363C576.121 247.113 576.408 246.92 576.76 246.783C577.111 246.643 577.512 246.572 577.961 246.572C578.477 246.572 578.912 246.656 579.268 246.824C579.627 246.992 579.898 247.234 580.082 247.551C580.27 247.863 580.363 248.238 580.363 248.676V253H579.344V252.068H579.25C579.117 252.291 578.955 252.48 578.764 252.637C578.576 252.793 578.363 252.912 578.125 252.994C577.887 253.072 577.625 253.111 577.34 253.111ZM584.559 253.111C584.027 253.111 583.562 252.977 583.164 252.707C582.766 252.438 582.457 252.059 582.238 251.57C582.02 251.078 581.91 250.504 581.91 249.848V249.836C581.91 249.176 582.02 248.602 582.238 248.113C582.457 247.625 582.764 247.246 583.158 246.977C583.557 246.707 584.023 246.572 584.559 246.572C584.848 246.572 585.119 246.619 585.373 246.713C585.631 246.803 585.859 246.93 586.059 247.094C586.258 247.258 586.414 247.453 586.527 247.68H586.621V244.176H587.641V253H586.621V251.992H586.527C586.398 252.227 586.236 252.428 586.041 252.596C585.846 252.76 585.623 252.887 585.373 252.977C585.123 253.066 584.852 253.111 584.559 253.111ZM584.793 252.209C585.176 252.209 585.506 252.113 585.783 251.922C586.061 251.73 586.273 251.459 586.422 251.107C586.57 250.752 586.645 250.332 586.645 249.848V249.836C586.645 249.348 586.57 248.928 586.422 248.576C586.273 248.225 586.061 247.953 585.783 247.762C585.506 247.57 585.176 247.475 584.793 247.475C584.41 247.475 584.08 247.57 583.803 247.762C583.529 247.949 583.318 248.219 583.17 248.57C583.025 248.922 582.953 249.344 582.953 249.836V249.848C582.953 250.336 583.025 250.758 583.17 251.113C583.318 251.465 583.529 251.736 583.803 251.928C584.08 252.115 584.41 252.209 584.793 252.209ZM589.598 253V246.684H590.617V247.645H590.711C590.852 247.305 591.066 247.041 591.355 246.854C591.648 246.666 592.002 246.572 592.416 246.572C592.701 246.572 592.957 246.619 593.184 246.713C593.41 246.807 593.605 246.938 593.77 247.105C593.934 247.27 594.064 247.461 594.162 247.68H594.256C594.369 247.457 594.521 247.264 594.713 247.1C594.904 246.932 595.125 246.803 595.375 246.713C595.629 246.619 595.9 246.572 596.189 246.572C596.619 246.572 596.982 246.652 597.279 246.812C597.58 246.973 597.809 247.207 597.965 247.516C598.121 247.82 598.199 248.193 598.199 248.635V253H597.18V248.869C597.18 248.557 597.131 248.299 597.033 248.096C596.939 247.889 596.795 247.734 596.6 247.633C596.404 247.527 596.158 247.475 595.861 247.475C595.568 247.475 595.312 247.541 595.094 247.674C594.875 247.807 594.705 247.984 594.584 248.207C594.463 248.426 594.402 248.67 594.402 248.939V253H593.383V248.711C593.383 248.461 593.328 248.244 593.219 248.061C593.113 247.873 592.961 247.729 592.762 247.627C592.566 247.525 592.336 247.475 592.07 247.475C591.797 247.475 591.549 247.547 591.326 247.691C591.107 247.836 590.934 248.031 590.805 248.277C590.68 248.52 590.617 248.789 590.617 249.086V253H589.598ZM600.062 253V246.684H601.082V253H600.062ZM600.578 245.465C600.387 245.465 600.221 245.396 600.08 245.26C599.943 245.119 599.875 244.953 599.875 244.762C599.875 244.566 599.943 244.4 600.08 244.264C600.221 244.127 600.387 244.059 600.578 244.059C600.773 244.059 600.939 244.127 601.076 244.264C601.213 244.4 601.281 244.566 601.281 244.762C601.281 244.953 601.213 245.119 601.076 245.26C600.939 245.396 600.773 245.465 600.578 245.465ZM603.004 253V246.684H604.023V247.633H604.117C604.277 247.297 604.508 247.037 604.809 246.854C605.109 246.666 605.492 246.572 605.957 246.572C606.668 246.572 607.213 246.775 607.592 247.182C607.975 247.584 608.166 248.16 608.166 248.91V253H607.146V249.156C607.146 248.586 607.025 248.164 606.783 247.891C606.545 247.613 606.174 247.475 605.67 247.475C605.334 247.475 605.043 247.547 604.797 247.691C604.551 247.836 604.359 248.041 604.223 248.307C604.09 248.572 604.023 248.891 604.023 249.262V253H603.004Z" fill="white" style="fill:white;fill-opacity:1;"/>
<path d="M285 265H511V642H300C291.716 642 285 635.284 285 627V265Z" fill="black" style="fill:black;fill-opacity:1;"/>
<rect x="285" y="303" width="226" height="38" fill="#242424" style="fill:#242424;fill:color(display-p3 0.1400 0.1400 0.1400);fill-opacity:1;"/>
<path d="M310.852 319.266C310.362 319.266 309.927 319.195 309.547 319.055C309.167 318.914 308.844 318.716 308.578 318.461C308.312 318.206 308.104 317.906 307.953 317.562C307.802 317.219 307.711 316.844 307.68 316.438L307.672 316.328H309.078L309.086 316.406C309.117 316.688 309.201 316.948 309.336 317.188C309.471 317.422 309.664 317.612 309.914 317.758C310.164 317.898 310.474 317.969 310.844 317.969C311.469 317.969 311.945 317.789 312.273 317.43C312.602 317.065 312.766 316.539 312.766 315.852V307.727H314.172V315.867C314.172 316.576 314.039 317.185 313.773 317.695C313.513 318.201 313.135 318.589 312.641 318.859C312.146 319.13 311.549 319.266 310.852 319.266ZM320.336 319.148C319.539 319.148 318.849 318.974 318.266 318.625C317.688 318.271 317.24 317.768 316.922 317.117C316.609 316.466 316.453 315.693 316.453 314.797V314.781C316.453 313.88 316.609 313.104 316.922 312.453C317.24 311.802 317.688 311.302 318.266 310.953C318.849 310.604 319.539 310.43 320.336 310.43C321.138 310.43 321.828 310.604 322.406 310.953C322.984 311.302 323.43 311.802 323.742 312.453C324.06 313.104 324.219 313.88 324.219 314.781V314.797C324.219 315.693 324.06 316.466 323.742 317.117C323.43 317.768 322.984 318.271 322.406 318.625C321.828 318.974 321.138 319.148 320.336 319.148ZM320.336 317.945C320.867 317.945 321.318 317.82 321.688 317.57C322.057 317.32 322.339 316.961 322.531 316.492C322.729 316.023 322.828 315.458 322.828 314.797V314.781C322.828 314.115 322.729 313.547 322.531 313.078C322.339 312.609 322.057 312.253 321.688 312.008C321.318 311.758 320.867 311.633 320.336 311.633C319.805 311.633 319.354 311.758 318.984 312.008C318.615 312.253 318.331 312.609 318.133 313.078C317.94 313.547 317.844 314.115 317.844 314.781V314.797C317.844 315.458 317.94 316.023 318.133 316.492C318.331 316.961 318.615 317.32 318.984 317.57C319.354 317.82 319.805 317.945 320.336 317.945ZM326.406 319V307.234H327.766V311.844H327.891C328.104 311.396 328.411 311.049 328.812 310.805C329.214 310.555 329.724 310.43 330.344 310.43C330.974 310.43 331.508 310.552 331.945 310.797C332.383 311.036 332.716 311.388 332.945 311.852C333.174 312.315 333.289 312.88 333.289 313.547V319H331.93V313.875C331.93 313.115 331.768 312.552 331.445 312.188C331.128 311.818 330.633 311.633 329.961 311.633C329.513 311.633 329.125 311.729 328.797 311.922C328.469 312.115 328.214 312.388 328.031 312.742C327.854 313.096 327.766 313.521 327.766 314.016V319H326.406ZM335.75 319V310.578H337.109V311.844H337.234C337.448 311.396 337.755 311.049 338.156 310.805C338.557 310.555 339.068 310.43 339.688 310.43C340.635 310.43 341.362 310.701 341.867 311.242C342.378 311.779 342.633 312.547 342.633 313.547V319H341.273V313.875C341.273 313.115 341.112 312.552 340.789 312.188C340.471 311.818 339.977 311.633 339.305 311.633C338.857 311.633 338.469 311.729 338.141 311.922C337.812 312.115 337.557 312.388 337.375 312.742C337.198 313.096 337.109 313.521 337.109 314.016V319H335.75Z" fill="white" style="fill:white;fill-opacity:1;"/>
<path d="M310.042 326.646L307.815 335.758H307L309.227 326.646H310.042ZM312.283 334.093C311.951 334.093 311.652 334.029 311.385 333.902C311.121 333.775 310.911 333.595 310.755 333.36C310.602 333.126 310.525 332.849 310.525 332.53V332.521C310.525 332.208 310.6 331.941 310.75 331.72C310.9 331.495 311.118 331.319 311.404 331.192C311.691 331.065 312.037 330.991 312.444 330.968L314.378 330.851V331.529L312.547 331.646C312.146 331.669 311.854 331.752 311.668 331.896C311.486 332.039 311.395 332.241 311.395 332.501V332.511C311.395 332.778 311.495 332.986 311.697 333.136C311.899 333.282 312.153 333.355 312.459 333.355C312.749 333.355 313.006 333.299 313.23 333.185C313.455 333.067 313.631 332.91 313.758 332.711C313.888 332.512 313.953 332.288 313.953 332.037V330.396C313.953 330.071 313.854 329.824 313.655 329.654C313.46 329.482 313.165 329.396 312.771 329.396C312.456 329.396 312.197 329.452 311.995 329.566C311.793 329.677 311.658 329.835 311.59 330.04L311.585 330.055H310.735L310.74 330.025C310.786 329.749 310.9 329.508 311.082 329.303C311.268 329.094 311.507 328.933 311.8 328.819C312.093 328.702 312.426 328.644 312.801 328.644C313.23 328.644 313.593 328.714 313.89 328.854C314.189 328.993 314.415 329.195 314.568 329.459C314.725 329.719 314.803 330.032 314.803 330.396V334H313.953V333.224H313.875C313.764 333.409 313.629 333.567 313.47 333.697C313.313 333.827 313.136 333.927 312.938 333.995C312.739 334.06 312.521 334.093 312.283 334.093ZM318.299 334.093C317.856 334.093 317.469 333.98 317.137 333.756C316.805 333.531 316.548 333.215 316.365 332.809C316.183 332.398 316.092 331.92 316.092 331.373V331.363C316.092 330.813 316.183 330.335 316.365 329.928C316.548 329.521 316.803 329.205 317.132 328.98C317.464 328.756 317.853 328.644 318.299 328.644C318.54 328.644 318.766 328.683 318.978 328.761C319.192 328.836 319.383 328.941 319.549 329.078C319.715 329.215 319.845 329.378 319.939 329.566H320.018V326.646H320.867V334H320.018V333.16H319.939C319.832 333.355 319.697 333.523 319.534 333.663C319.371 333.8 319.186 333.906 318.978 333.98C318.769 334.055 318.543 334.093 318.299 334.093ZM318.494 333.341C318.813 333.341 319.088 333.261 319.319 333.102C319.55 332.942 319.728 332.716 319.852 332.423C319.975 332.127 320.037 331.777 320.037 331.373V331.363C320.037 330.956 319.975 330.606 319.852 330.313C319.728 330.021 319.55 329.794 319.319 329.635C319.088 329.475 318.813 329.396 318.494 329.396C318.175 329.396 317.9 329.475 317.669 329.635C317.441 329.791 317.265 330.016 317.142 330.309C317.021 330.602 316.961 330.953 316.961 331.363V331.373C316.961 331.78 317.021 332.132 317.142 332.428C317.265 332.721 317.441 332.947 317.669 333.106C317.9 333.263 318.175 333.341 318.494 333.341ZM322.498 334V328.736H323.348V329.537H323.426C323.543 329.254 323.722 329.034 323.963 328.878C324.207 328.722 324.502 328.644 324.847 328.644C325.084 328.644 325.298 328.683 325.486 328.761C325.675 328.839 325.838 328.948 325.975 329.088C326.111 329.225 326.22 329.384 326.302 329.566H326.38C326.474 329.381 326.601 329.22 326.761 329.083C326.92 328.943 327.104 328.836 327.312 328.761C327.524 328.683 327.75 328.644 327.991 328.644C328.349 328.644 328.652 328.71 328.899 328.844C329.15 328.977 329.34 329.173 329.471 329.43C329.601 329.684 329.666 329.994 329.666 330.362V334H328.816V330.558C328.816 330.297 328.776 330.082 328.694 329.913C328.616 329.741 328.496 329.612 328.333 329.527C328.17 329.439 327.965 329.396 327.718 329.396C327.474 329.396 327.26 329.451 327.078 329.562C326.896 329.672 326.754 329.82 326.653 330.006C326.552 330.188 326.502 330.392 326.502 330.616V334H325.652V330.426C325.652 330.217 325.607 330.037 325.516 329.884C325.428 329.728 325.301 329.607 325.135 329.522C324.972 329.438 324.78 329.396 324.559 329.396C324.331 329.396 324.124 329.456 323.938 329.576C323.756 329.697 323.611 329.859 323.504 330.064C323.4 330.266 323.348 330.491 323.348 330.738V334H322.498ZM331.219 334V328.736H332.068V334H331.219ZM331.648 327.721C331.489 327.721 331.351 327.664 331.233 327.55C331.119 327.433 331.062 327.294 331.062 327.135C331.062 326.972 331.119 326.834 331.233 326.72C331.351 326.606 331.489 326.549 331.648 326.549C331.811 326.549 331.95 326.606 332.063 326.72C332.177 326.834 332.234 326.972 332.234 327.135C332.234 327.294 332.177 327.433 332.063 327.55C331.95 327.664 331.811 327.721 331.648 327.721ZM333.67 334V328.736H334.52V329.527H334.598C334.731 329.247 334.923 329.031 335.174 328.878C335.424 328.722 335.743 328.644 336.131 328.644C336.723 328.644 337.177 328.813 337.493 329.151C337.812 329.487 337.972 329.967 337.972 330.592V334H337.122V330.797C337.122 330.322 337.021 329.97 336.819 329.742C336.621 329.511 336.312 329.396 335.892 329.396C335.612 329.396 335.369 329.456 335.164 329.576C334.959 329.697 334.799 329.868 334.686 330.089C334.575 330.31 334.52 330.576 334.52 330.885V334H333.67Z" fill="white" fill-opacity="0.35" style="fill:white;fill-opacity:0.35;"/>
<rect x="285" y="265" width="226" height="38" fill="#242424" fill-opacity="0.49" style="fill:#242424;fill:color(display-p3 0.1400 0.1400 0.1400);fill-opacity:0.49;"/>
<path d="M310.852 281.266C310.362 281.266 309.927 281.195 309.547 281.055C309.167 280.914 308.844 280.716 308.578 280.461C308.312 280.206 308.104 279.906 307.953 279.562C307.802 279.219 307.711 278.844 307.68 278.438L307.672 278.328H309.078L309.086 278.406C309.117 278.688 309.201 278.948 309.336 279.188C309.471 279.422 309.664 279.612 309.914 279.758C310.164 279.898 310.474 279.969 310.844 279.969C311.469 279.969 311.945 279.789 312.273 279.43C312.602 279.065 312.766 278.539 312.766 277.852V269.727H314.172V277.867C314.172 278.576 314.039 279.185 313.773 279.695C313.513 280.201 313.135 280.589 312.641 280.859C312.146 281.13 311.549 281.266 310.852 281.266ZM320.336 281.148C319.539 281.148 318.849 280.974 318.266 280.625C317.688 280.271 317.24 279.768 316.922 279.117C316.609 278.466 316.453 277.693 316.453 276.797V276.781C316.453 275.88 316.609 275.104 316.922 274.453C317.24 273.802 317.688 273.302 318.266 272.953C318.849 272.604 319.539 272.43 320.336 272.43C321.138 272.43 321.828 272.604 322.406 272.953C322.984 273.302 323.43 273.802 323.742 274.453C324.06 275.104 324.219 275.88 324.219 276.781V276.797C324.219 277.693 324.06 278.466 323.742 279.117C323.43 279.768 322.984 280.271 322.406 280.625C321.828 280.974 321.138 281.148 320.336 281.148ZM320.336 279.945C320.867 279.945 321.318 279.82 321.688 279.57C322.057 279.32 322.339 278.961 322.531 278.492C322.729 278.023 322.828 277.458 322.828 276.797V276.781C322.828 276.115 322.729 275.547 322.531 275.078C322.339 274.609 322.057 274.253 321.688 274.008C321.318 273.758 320.867 273.633 320.336 273.633C319.805 273.633 319.354 273.758 318.984 274.008C318.615 274.253 318.331 274.609 318.133 275.078C317.94 275.547 317.844 276.115 317.844 276.781V276.797C317.844 277.458 317.94 278.023 318.133 278.492C318.331 278.961 318.615 279.32 318.984 279.57C319.354 279.82 319.805 279.945 320.336 279.945ZM326.406 281V269.234H327.766V273.844H327.891C328.104 273.396 328.411 273.049 328.812 272.805C329.214 272.555 329.724 272.43 330.344 272.43C330.974 272.43 331.508 272.552 331.945 272.797C332.383 273.036 332.716 273.388 332.945 273.852C333.174 274.315 333.289 274.88 333.289 275.547V281H331.93V275.875C331.93 275.115 331.768 274.552 331.445 274.188C331.128 273.818 330.633 273.633 329.961 273.633C329.513 273.633 329.125 273.729 328.797 273.922C328.469 274.115 328.214 274.388 328.031 274.742C327.854 275.096 327.766 275.521 327.766 276.016V281H326.406ZM335.75 281V272.578H337.109V273.844H337.234C337.448 273.396 337.755 273.049 338.156 272.805C338.557 272.555 339.068 272.43 339.688 272.43C340.635 272.43 341.362 272.701 341.867 273.242C342.378 273.779 342.633 274.547 342.633 275.547V281H341.273V275.875C341.273 275.115 341.112 274.552 340.789 274.188C340.471 273.818 339.977 273.633 339.305 273.633C338.857 273.633 338.469 273.729 338.141 273.922C337.812 274.115 337.557 274.388 337.375 274.742C337.198 275.096 337.109 275.521 337.109 276.016V281H335.75Z" fill="white" style="fill:white;fill-opacity:1;"/>
<path d="M310.042 288.646L307.815 297.758H307L309.227 288.646H310.042ZM312.283 296.093C311.951 296.093 311.652 296.029 311.385 295.902C311.121 295.775 310.911 295.595 310.755 295.36C310.602 295.126 310.525 294.849 310.525 294.53V294.521C310.525 294.208 310.6 293.941 310.75 293.72C310.9 293.495 311.118 293.319 311.404 293.192C311.691 293.065 312.037 292.991 312.444 292.968L314.378 292.851V293.529L312.547 293.646C312.146 293.669 311.854 293.752 311.668 293.896C311.486 294.039 311.395 294.241 311.395 294.501V294.511C311.395 294.778 311.495 294.986 311.697 295.136C311.899 295.282 312.153 295.355 312.459 295.355C312.749 295.355 313.006 295.299 313.23 295.185C313.455 295.067 313.631 294.91 313.758 294.711C313.888 294.512 313.953 294.288 313.953 294.037V292.396C313.953 292.071 313.854 291.824 313.655 291.654C313.46 291.482 313.165 291.396 312.771 291.396C312.456 291.396 312.197 291.452 311.995 291.566C311.793 291.677 311.658 291.835 311.59 292.04L311.585 292.055H310.735L310.74 292.025C310.786 291.749 310.9 291.508 311.082 291.303C311.268 291.094 311.507 290.933 311.8 290.819C312.093 290.702 312.426 290.644 312.801 290.644C313.23 290.644 313.593 290.714 313.89 290.854C314.189 290.993 314.415 291.195 314.568 291.459C314.725 291.719 314.803 292.032 314.803 292.396V296H313.953V295.224H313.875C313.764 295.409 313.629 295.567 313.47 295.697C313.313 295.827 313.136 295.927 312.938 295.995C312.739 296.06 312.521 296.093 312.283 296.093ZM318.299 296.093C317.856 296.093 317.469 295.98 317.137 295.756C316.805 295.531 316.548 295.215 316.365 294.809C316.183 294.398 316.092 293.92 316.092 293.373V293.363C316.092 292.813 316.183 292.335 316.365 291.928C316.548 291.521 316.803 291.205 317.132 290.98C317.464 290.756 317.853 290.644 318.299 290.644C318.54 290.644 318.766 290.683 318.978 290.761C319.192 290.836 319.383 290.941 319.549 291.078C319.715 291.215 319.845 291.378 319.939 291.566H320.018V288.646H320.867V296H320.018V295.16H319.939C319.832 295.355 319.697 295.523 319.534 295.663C319.371 295.8 319.186 295.906 318.978 295.98C318.769 296.055 318.543 296.093 318.299 296.093ZM318.494 295.341C318.813 295.341 319.088 295.261 319.319 295.102C319.55 294.942 319.728 294.716 319.852 294.423C319.975 294.127 320.037 293.777 320.037 293.373V293.363C320.037 292.956 319.975 292.606 319.852 292.313C319.728 292.021 319.55 291.794 319.319 291.635C319.088 291.475 318.813 291.396 318.494 291.396C318.175 291.396 317.9 291.475 317.669 291.635C317.441 291.791 317.265 292.016 317.142 292.309C317.021 292.602 316.961 292.953 316.961 293.363V293.373C316.961 293.78 317.021 294.132 317.142 294.428C317.265 294.721 317.441 294.947 317.669 295.106C317.9 295.263 318.175 295.341 318.494 295.341ZM322.498 296V290.736H323.348V291.537H323.426C323.543 291.254 323.722 291.034 323.963 290.878C324.207 290.722 324.502 290.644 324.847 290.644C325.084 290.644 325.298 290.683 325.486 290.761C325.675 290.839 325.838 290.948 325.975 291.088C326.111 291.225 326.22 291.384 326.302 291.566H326.38C326.474 291.381 326.601 291.22 326.761 291.083C326.92 290.943 327.104 290.836 327.312 290.761C327.524 290.683 327.75 290.644 327.991 290.644C328.349 290.644 328.652 290.71 328.899 290.844C329.15 290.977 329.34 291.173 329.471 291.43C329.601 291.684 329.666 291.994 329.666 292.362V296H328.816V292.558C328.816 292.297 328.776 292.082 328.694 291.913C328.616 291.741 328.496 291.612 328.333 291.527C328.17 291.439 327.965 291.396 327.718 291.396C327.474 291.396 327.26 291.451 327.078 291.562C326.896 291.672 326.754 291.82 326.653 292.006C326.552 292.188 326.502 292.392 326.502 292.616V296H325.652V292.426C325.652 292.217 325.607 292.037 325.516 291.884C325.428 291.728 325.301 291.607 325.135 291.522C324.972 291.438 324.78 291.396 324.559 291.396C324.331 291.396 324.124 291.456 323.938 291.576C323.756 291.697 323.611 291.859 323.504 292.064C323.4 292.266 323.348 292.491 323.348 292.738V296H322.498ZM331.219 296V290.736H332.068V296H331.219ZM331.648 289.721C331.489 289.721 331.351 289.664 331.233 289.55C331.119 289.433 331.062 289.294 331.062 289.135C331.062 288.972 331.119 288.834 331.233 288.72C331.351 288.606 331.489 288.549 331.648 288.549C331.811 288.549 331.95 288.606 332.063 288.72C332.177 288.834 332.234 288.972 332.234 289.135C332.234 289.294 332.177 289.433 332.063 289.55C331.95 289.664 331.811 289.721 331.648 289.721ZM333.67 296V290.736H334.52V291.527H334.598C334.731 291.247 334.923 291.031 335.174 290.878C335.424 290.722 335.743 290.644 336.131 290.644C336.723 290.644 337.177 290.813 337.493 291.151C337.812 291.487 337.972 291.967 337.972 292.592V296H337.122V292.797C337.122 292.322 337.021 291.97 336.819 291.742C336.621 291.511 336.312 291.396 335.892 291.396C335.612 291.396 335.369 291.456 335.164 291.576C334.959 291.697 334.799 291.868 334.686 292.089C334.575 292.31 334.52 292.576 334.52 292.885V296H333.67Z" fill="white" fill-opacity="0.35" style="fill:white;fill-opacity:0.35;"/>
<rect x="285" y="417" width="226" height="38" fill="#242424" fill-opacity="0.49" style="fill:#242424;fill:color(display-p3 0.1400 0.1400 0.1400);fill-opacity:0.49;"/>
<rect x="285" y="379" width="226" height="38" fill="#242424" style="fill:#242424;fill:color(display-p3 0.1400 0.1400 0.1400);fill-opacity:1;"/>
<path d="M310.852 435.266C310.362 435.266 309.927 435.195 309.547 435.055C309.167 434.914 308.844 434.716 308.578 434.461C308.312 434.206 308.104 433.906 307.953 433.562C307.802 433.219 307.711 432.844 307.68 432.438L307.672 432.328H309.078L309.086 432.406C309.117 432.688 309.201 432.948 309.336 433.188C309.471 433.422 309.664 433.612 309.914 433.758C310.164 433.898 310.474 433.969 310.844 433.969C311.469 433.969 311.945 433.789 312.273 433.43C312.602 433.065 312.766 432.539 312.766 431.852V423.727H314.172V431.867C314.172 432.576 314.039 433.185 313.773 433.695C313.513 434.201 313.135 434.589 312.641 434.859C312.146 435.13 311.549 435.266 310.852 435.266ZM320.336 435.148C319.539 435.148 318.849 434.974 318.266 434.625C317.688 434.271 317.24 433.768 316.922 433.117C316.609 432.466 316.453 431.693 316.453 430.797V430.781C316.453 429.88 316.609 429.104 316.922 428.453C317.24 427.802 317.688 427.302 318.266 426.953C318.849 426.604 319.539 426.43 320.336 426.43C321.138 426.43 321.828 426.604 322.406 426.953C322.984 427.302 323.43 427.802 323.742 428.453C324.06 429.104 324.219 429.88 324.219 430.781V430.797C324.219 431.693 324.06 432.466 323.742 433.117C323.43 433.768 322.984 434.271 322.406 434.625C321.828 434.974 321.138 435.148 320.336 435.148ZM320.336 433.945C320.867 433.945 321.318 433.82 321.688 433.57C322.057 433.32 322.339 432.961 322.531 432.492C322.729 432.023 322.828 431.458 322.828 430.797V430.781C322.828 430.115 322.729 429.547 322.531 429.078C322.339 428.609 322.057 428.253 321.688 428.008C321.318 427.758 320.867 427.633 320.336 427.633C319.805 427.633 319.354 427.758 318.984 428.008C318.615 428.253 318.331 428.609 318.133 429.078C317.94 429.547 317.844 430.115 317.844 430.781V430.797C317.844 431.458 317.94 432.023 318.133 432.492C318.331 432.961 318.615 433.32 318.984 433.57C319.354 433.82 319.805 433.945 320.336 433.945ZM326.406 435V423.234H327.766V427.844H327.891C328.104 427.396 328.411 427.049 328.812 426.805C329.214 426.555 329.724 426.43 330.344 426.43C330.974 426.43 331.508 426.552 331.945 426.797C332.383 427.036 332.716 427.388 332.945 427.852C333.174 428.315 333.289 428.88 333.289 429.547V435H331.93V429.875C331.93 429.115 331.768 428.552 331.445 428.188C331.128 427.818 330.633 427.633 329.961 427.633C329.513 427.633 329.125 427.729 328.797 427.922C328.469 428.115 328.214 428.388 328.031 428.742C327.854 429.096 327.766 429.521 327.766 430.016V435H326.406ZM335.75 435V426.578H337.109V427.844H337.234C337.448 427.396 337.755 427.049 338.156 426.805C338.557 426.555 339.068 426.43 339.688 426.43C340.635 426.43 341.362 426.701 341.867 427.242C342.378 427.779 342.633 428.547 342.633 429.547V435H341.273V429.875C341.273 429.115 341.112 428.552 340.789 428.188C340.471 427.818 339.977 427.633 339.305 427.633C338.857 427.633 338.469 427.729 338.141 427.922C337.812 428.115 337.557 428.388 337.375 428.742C337.198 429.096 337.109 429.521 337.109 430.016V435H335.75Z" fill="white" style="fill:white;fill-opacity:1;"/>
<path d="M310.042 442.646L307.815 451.758H307L309.227 442.646H310.042ZM312.283 450.093C311.951 450.093 311.652 450.029 311.385 449.902C311.121 449.775 310.911 449.595 310.755 449.36C310.602 449.126 310.525 448.849 310.525 448.53V448.521C310.525 448.208 310.6 447.941 310.75 447.72C310.9 447.495 311.118 447.319 311.404 447.192C311.691 447.065 312.037 446.991 312.444 446.968L314.378 446.851V447.529L312.547 447.646C312.146 447.669 311.854 447.752 311.668 447.896C311.486 448.039 311.395 448.241 311.395 448.501V448.511C311.395 448.778 311.495 448.986 311.697 449.136C311.899 449.282 312.153 449.355 312.459 449.355C312.749 449.355 313.006 449.299 313.23 449.185C313.455 449.067 313.631 448.91 313.758 448.711C313.888 448.512 313.953 448.288 313.953 448.037V446.396C313.953 446.071 313.854 445.824 313.655 445.654C313.46 445.482 313.165 445.396 312.771 445.396C312.456 445.396 312.197 445.452 311.995 445.566C311.793 445.677 311.658 445.835 311.59 446.04L311.585 446.055H310.735L310.74 446.025C310.786 445.749 310.9 445.508 311.082 445.303C311.268 445.094 311.507 444.933 311.8 444.819C312.093 444.702 312.426 444.644 312.801 444.644C313.23 444.644 313.593 444.714 313.89 444.854C314.189 444.993 314.415 445.195 314.568 445.459C314.725 445.719 314.803 446.032 314.803 446.396V450H313.953V449.224H313.875C313.764 449.409 313.629 449.567 313.47 449.697C313.313 449.827 313.136 449.927 312.938 449.995C312.739 450.06 312.521 450.093 312.283 450.093ZM318.299 450.093C317.856 450.093 317.469 449.98 317.137 449.756C316.805 449.531 316.548 449.215 316.365 448.809C316.183 448.398 316.092 447.92 316.092 447.373V447.363C316.092 446.813 316.183 446.335 316.365 445.928C316.548 445.521 316.803 445.205 317.132 444.98C317.464 444.756 317.853 444.644 318.299 444.644C318.54 444.644 318.766 444.683 318.978 444.761C319.192 444.836 319.383 444.941 319.549 445.078C319.715 445.215 319.845 445.378 319.939 445.566H320.018V442.646H320.867V450H320.018V449.16H319.939C319.832 449.355 319.697 449.523 319.534 449.663C319.371 449.8 319.186 449.906 318.978 449.98C318.769 450.055 318.543 450.093 318.299 450.093ZM318.494 449.341C318.813 449.341 319.088 449.261 319.319 449.102C319.55 448.942 319.728 448.716 319.852 448.423C319.975 448.127 320.037 447.777 320.037 447.373V447.363C320.037 446.956 319.975 446.606 319.852 446.313C319.728 446.021 319.55 445.794 319.319 445.635C319.088 445.475 318.813 445.396 318.494 445.396C318.175 445.396 317.9 445.475 317.669 445.635C317.441 445.791 317.265 446.016 317.142 446.309C317.021 446.602 316.961 446.953 316.961 447.363V447.373C316.961 447.78 317.021 448.132 317.142 448.428C317.265 448.721 317.441 448.947 317.669 449.106C317.9 449.263 318.175 449.341 318.494 449.341ZM322.498 450V444.736H323.348V445.537H323.426C323.543 445.254 323.722 445.034 323.963 444.878C324.207 444.722 324.502 444.644 324.847 444.644C325.084 444.644 325.298 444.683 325.486 444.761C325.675 444.839 325.838 444.948 325.975 445.088C326.111 445.225 326.22 445.384 326.302 445.566H326.38C326.474 445.381 326.601 445.22 326.761 445.083C326.92 444.943 327.104 444.836 327.312 444.761C327.524 444.683 327.75 444.644 327.991 444.644C328.349 444.644 328.652 444.71 328.899 444.844C329.15 444.977 329.34 445.173 329.471 445.43C329.601 445.684 329.666 445.994 329.666 446.362V450H328.816V446.558C328.816 446.297 328.776 446.082 328.694 445.913C328.616 445.741 328.496 445.612 328.333 445.527C328.17 445.439 327.965 445.396 327.718 445.396C327.474 445.396 327.26 445.451 327.078 445.562C326.896 445.672 326.754 445.82 326.653 446.006C326.552 446.188 326.502 446.392 326.502 446.616V450H325.652V446.426C325.652 446.217 325.607 446.037 325.516 445.884C325.428 445.728 325.301 445.607 325.135 445.522C324.972 445.438 324.78 445.396 324.559 445.396C324.331 445.396 324.124 445.456 323.938 445.576C323.756 445.697 323.611 445.859 323.504 446.064C323.4 446.266 323.348 446.491 323.348 446.738V450H322.498ZM331.219 450V444.736H332.068V450H331.219ZM331.648 443.721C331.489 443.721 331.351 443.664 331.233 443.55C331.119 443.433 331.062 443.294 331.062 443.135C331.062 442.972 331.119 442.834 331.233 442.72C331.351 442.606 331.489 442.549 331.648 442.549C331.811 442.549 331.95 442.606 332.063 442.72C332.177 442.834 332.234 442.972 332.234 443.135C332.234 443.294 332.177 443.433 332.063 443.55C331.95 443.664 331.811 443.721 331.648 443.721ZM333.67 450V444.736H334.52V445.527H334.598C334.731 445.247 334.923 445.031 335.174 444.878C335.424 444.722 335.743 444.644 336.131 444.644C336.723 444.644 337.177 444.813 337.493 445.151C337.812 445.487 337.972 445.967 337.972 446.592V450H337.122V446.797C337.122 446.322 337.021 445.97 336.819 445.742C336.621 445.511 336.312 445.396 335.892 445.396C335.612 445.396 335.369 445.456 335.164 445.576C334.959 445.697 334.799 445.868 334.686 446.089C334.575 446.31 334.52 446.576 334.52 446.885V450H333.67Z" fill="white" fill-opacity="0.35" style="fill:white;fill-opacity:0.35;"/>
<path d="M310.852 397.266C310.362 397.266 309.927 397.195 309.547 397.055C309.167 396.914 308.844 396.716 308.578 396.461C308.312 396.206 308.104 395.906 307.953 395.562C307.802 395.219 307.711 394.844 307.68 394.438L307.672 394.328H309.078L309.086 394.406C309.117 394.688 309.201 394.948 309.336 395.188C309.471 395.422 309.664 395.612 309.914 395.758C310.164 395.898 310.474 395.969 310.844 395.969C311.469 395.969 311.945 395.789 312.273 395.43C312.602 395.065 312.766 394.539 312.766 393.852V385.727H314.172V393.867C314.172 394.576 314.039 395.185 313.773 395.695C313.513 396.201 313.135 396.589 312.641 396.859C312.146 397.13 311.549 397.266 310.852 397.266ZM320.336 397.148C319.539 397.148 318.849 396.974 318.266 396.625C317.688 396.271 317.24 395.768 316.922 395.117C316.609 394.466 316.453 393.693 316.453 392.797V392.781C316.453 391.88 316.609 391.104 316.922 390.453C317.24 389.802 317.688 389.302 318.266 388.953C318.849 388.604 319.539 388.43 320.336 388.43C321.138 388.43 321.828 388.604 322.406 388.953C322.984 389.302 323.43 389.802 323.742 390.453C324.06 391.104 324.219 391.88 324.219 392.781V392.797C324.219 393.693 324.06 394.466 323.742 395.117C323.43 395.768 322.984 396.271 322.406 396.625C321.828 396.974 321.138 397.148 320.336 397.148ZM320.336 395.945C320.867 395.945 321.318 395.82 321.688 395.57C322.057 395.32 322.339 394.961 322.531 394.492C322.729 394.023 322.828 393.458 322.828 392.797V392.781C322.828 392.115 322.729 391.547 322.531 391.078C322.339 390.609 322.057 390.253 321.688 390.008C321.318 389.758 320.867 389.633 320.336 389.633C319.805 389.633 319.354 389.758 318.984 390.008C318.615 390.253 318.331 390.609 318.133 391.078C317.94 391.547 317.844 392.115 317.844 392.781V392.797C317.844 393.458 317.94 394.023 318.133 394.492C318.331 394.961 318.615 395.32 318.984 395.57C319.354 395.82 319.805 395.945 320.336 395.945ZM326.406 397V385.234H327.766V389.844H327.891C328.104 389.396 328.411 389.049 328.812 388.805C329.214 388.555 329.724 388.43 330.344 388.43C330.974 388.43 331.508 388.552 331.945 388.797C332.383 389.036 332.716 389.388 332.945 389.852C333.174 390.315 333.289 390.88 333.289 391.547V397H331.93V391.875C331.93 391.115 331.768 390.552 331.445 390.188C331.128 389.818 330.633 389.633 329.961 389.633C329.513 389.633 329.125 389.729 328.797 389.922C328.469 390.115 328.214 390.388 328.031 390.742C327.854 391.096 327.766 391.521 327.766 392.016V397H326.406ZM335.75 397V388.578H337.109V389.844H337.234C337.448 389.396 337.755 389.049 338.156 388.805C338.557 388.555 339.068 388.43 339.688 388.43C340.635 388.43 341.362 388.701 341.867 389.242C342.378 389.779 342.633 390.547 342.633 391.547V397H341.273V391.875C341.273 391.115 341.112 390.552 340.789 390.188C340.471 389.818 339.977 389.633 339.305 389.633C338.857 389.633 338.469 389.729 338.141 389.922C337.812 390.115 337.557 390.388 337.375 390.742C337.198 391.096 337.109 391.521 337.109 392.016V397H335.75Z" fill="white" style="fill:white;fill-opacity:1;"/>
<path d="M310.042 404.646L307.815 413.758H307L309.227 404.646H310.042ZM312.283 412.093C311.951 412.093 311.652 412.029 311.385 411.902C311.121 411.775 310.911 411.595 310.755 411.36C310.602 411.126 310.525 410.849 310.525 410.53V410.521C310.525 410.208 310.6 409.941 310.75 409.72C310.9 409.495 311.118 409.319 311.404 409.192C311.691 409.065 312.037 408.991 312.444 408.968L314.378 408.851V409.529L312.547 409.646C312.146 409.669 311.854 409.752 311.668 409.896C311.486 410.039 311.395 410.241 311.395 410.501V410.511C311.395 410.778 311.495 410.986 311.697 411.136C311.899 411.282 312.153 411.355 312.459 411.355C312.749 411.355 313.006 411.299 313.23 411.185C313.455 411.067 313.631 410.91 313.758 410.711C313.888 410.512 313.953 410.288 313.953 410.037V408.396C313.953 408.071 313.854 407.824 313.655 407.654C313.46 407.482 313.165 407.396 312.771 407.396C312.456 407.396 312.197 407.452 311.995 407.566C311.793 407.677 311.658 407.835 311.59 408.04L311.585 408.055H310.735L310.74 408.025C310.786 407.749 310.9 407.508 311.082 407.303C311.268 407.094 311.507 406.933 311.8 406.819C312.093 406.702 312.426 406.644 312.801 406.644C313.23 406.644 313.593 406.714 313.89 406.854C314.189 406.993 314.415 407.195 314.568 407.459C314.725 407.719 314.803 408.032 314.803 408.396V412H313.953V411.224H313.875C313.764 411.409 313.629 411.567 313.47 411.697C313.313 411.827 313.136 411.927 312.938 411.995C312.739 412.06 312.521 412.093 312.283 412.093ZM318.299 412.093C317.856 412.093 317.469 411.98 317.137 411.756C316.805 411.531 316.548 411.215 316.365 410.809C316.183 410.398 316.092 409.92 316.092 409.373V409.363C316.092 408.813 316.183 408.335 316.365 407.928C316.548 407.521 316.803 407.205 317.132 406.98C317.464 406.756 317.853 406.644 318.299 406.644C318.54 406.644 318.766 406.683 318.978 406.761C319.192 406.836 319.383 406.941 319.549 407.078C319.715 407.215 319.845 407.378 319.939 407.566H320.018V404.646H320.867V412H320.018V411.16H319.939C319.832 411.355 319.697 411.523 319.534 411.663C319.371 411.8 319.186 411.906 318.978 411.98C318.769 412.055 318.543 412.093 318.299 412.093ZM318.494 411.341C318.813 411.341 319.088 411.261 319.319 411.102C319.55 410.942 319.728 410.716 319.852 410.423C319.975 410.127 320.037 409.777 320.037 409.373V409.363C320.037 408.956 319.975 408.606 319.852 408.313C319.728 408.021 319.55 407.794 319.319 407.635C319.088 407.475 318.813 407.396 318.494 407.396C318.175 407.396 317.9 407.475 317.669 407.635C317.441 407.791 317.265 408.016 317.142 408.309C317.021 408.602 316.961 408.953 316.961 409.363V409.373C316.961 409.78 317.021 410.132 317.142 410.428C317.265 410.721 317.441 410.947 317.669 411.106C317.9 411.263 318.175 411.341 318.494 411.341ZM322.498 412V406.736H323.348V407.537H323.426C323.543 407.254 323.722 407.034 323.963 406.878C324.207 406.722 324.502 406.644 324.847 406.644C325.084 406.644 325.298 406.683 325.486 406.761C325.675 406.839 325.838 406.948 325.975 407.088C326.111 407.225 326.22 407.384 326.302 407.566H326.38C326.474 407.381 326.601 407.22 326.761 407.083C326.92 406.943 327.104 406.836 327.312 406.761C327.524 406.683 327.75 406.644 327.991 406.644C328.349 406.644 328.652 406.71 328.899 406.844C329.15 406.977 329.34 407.173 329.471 407.43C329.601 407.684 329.666 407.994 329.666 408.362V412H328.816V408.558C328.816 408.297 328.776 408.082 328.694 407.913C328.616 407.741 328.496 407.612 328.333 407.527C328.17 407.439 327.965 407.396 327.718 407.396C327.474 407.396 327.26 407.451 327.078 407.562C326.896 407.672 326.754 407.82 326.653 408.006C326.552 408.188 326.502 408.392 326.502 408.616V412H325.652V408.426C325.652 408.217 325.607 408.037 325.516 407.884C325.428 407.728 325.301 407.607 325.135 407.522C324.972 407.438 324.78 407.396 324.559 407.396C324.331 407.396 324.124 407.456 323.938 407.576C323.756 407.697 323.611 407.859 323.504 408.064C323.4 408.266 323.348 408.491 323.348 408.738V412H322.498ZM331.219 412V406.736H332.068V412H331.219ZM331.648 405.721C331.489 405.721 331.351 405.664 331.233 405.55C331.119 405.433 331.062 405.294 331.062 405.135C331.062 404.972 331.119 404.834 331.233 404.72C331.351 404.606 331.489 404.549 331.648 404.549C331.811 404.549 331.95 404.606 332.063 404.72C332.177 404.834 332.234 404.972 332.234 405.135C332.234 405.294 332.177 405.433 332.063 405.55C331.95 405.664 331.811 405.721 331.648 405.721ZM333.67 412V406.736H334.52V407.527H334.598C334.731 407.247 334.923 407.031 335.174 406.878C335.424 406.722 335.743 406.644 336.131 406.644C336.723 406.644 337.177 406.813 337.493 407.151C337.812 407.487 337.972 407.967 337.972 408.592V412H337.122V408.797C337.122 408.322 337.021 407.97 336.819 407.742C336.621 407.511 336.312 407.396 335.892 407.396C335.612 407.396 335.369 407.456 335.164 407.576C334.959 407.697 334.799 407.868 334.686 408.089C334.575 408.31 334.52 408.576 334.52 408.885V412H333.67Z" fill="white" fill-opacity="0.35" style="fill:white;fill-opacity:0.35;"/>
<rect x="285" y="341" width="226" height="38" fill="#242424" fill-opacity="0.49" style="fill:#242424;fill:color(display-p3 0.1400 0.1400 0.1400);fill-opacity:0.49;"/>
<path d="M310.852 357.266C310.362 357.266 309.927 357.195 309.547 357.055C309.167 356.914 308.844 356.716 308.578 356.461C308.312 356.206 308.104 355.906 307.953 355.562C307.802 355.219 307.711 354.844 307.68 354.438L307.672 354.328H309.078L309.086 354.406C309.117 354.688 309.201 354.948 309.336 355.188C309.471 355.422 309.664 355.612 309.914 355.758C310.164 355.898 310.474 355.969 310.844 355.969C311.469 355.969 311.945 355.789 312.273 355.43C312.602 355.065 312.766 354.539 312.766 353.852V345.727H314.172V353.867C314.172 354.576 314.039 355.185 313.773 355.695C313.513 356.201 313.135 356.589 312.641 356.859C312.146 357.13 311.549 357.266 310.852 357.266ZM320.336 357.148C319.539 357.148 318.849 356.974 318.266 356.625C317.688 356.271 317.24 355.768 316.922 355.117C316.609 354.466 316.453 353.693 316.453 352.797V352.781C316.453 351.88 316.609 351.104 316.922 350.453C317.24 349.802 317.688 349.302 318.266 348.953C318.849 348.604 319.539 348.43 320.336 348.43C321.138 348.43 321.828 348.604 322.406 348.953C322.984 349.302 323.43 349.802 323.742 350.453C324.06 351.104 324.219 351.88 324.219 352.781V352.797C324.219 353.693 324.06 354.466 323.742 355.117C323.43 355.768 322.984 356.271 322.406 356.625C321.828 356.974 321.138 357.148 320.336 357.148ZM320.336 355.945C320.867 355.945 321.318 355.82 321.688 355.57C322.057 355.32 322.339 354.961 322.531 354.492C322.729 354.023 322.828 353.458 322.828 352.797V352.781C322.828 352.115 322.729 351.547 322.531 351.078C322.339 350.609 322.057 350.253 321.688 350.008C321.318 349.758 320.867 349.633 320.336 349.633C319.805 349.633 319.354 349.758 318.984 350.008C318.615 350.253 318.331 350.609 318.133 351.078C317.94 351.547 317.844 352.115 317.844 352.781V352.797C317.844 353.458 317.94 354.023 318.133 354.492C318.331 354.961 318.615 355.32 318.984 355.57C319.354 355.82 319.805 355.945 320.336 355.945ZM326.406 357V345.234H327.766V349.844H327.891C328.104 349.396 328.411 349.049 328.812 348.805C329.214 348.555 329.724 348.43 330.344 348.43C330.974 348.43 331.508 348.552 331.945 348.797C332.383 349.036 332.716 349.388 332.945 349.852C333.174 350.315 333.289 350.88 333.289 351.547V357H331.93V351.875C331.93 351.115 331.768 350.552 331.445 350.188C331.128 349.818 330.633 349.633 329.961 349.633C329.513 349.633 329.125 349.729 328.797 349.922C328.469 350.115 328.214 350.388 328.031 350.742C327.854 351.096 327.766 351.521 327.766 352.016V357H326.406ZM335.75 357V348.578H337.109V349.844H337.234C337.448 349.396 337.755 349.049 338.156 348.805C338.557 348.555 339.068 348.43 339.688 348.43C340.635 348.43 341.362 348.701 341.867 349.242C342.378 349.779 342.633 350.547 342.633 351.547V357H341.273V351.875C341.273 351.115 341.112 350.552 340.789 350.188C340.471 349.818 339.977 349.633 339.305 349.633C338.857 349.633 338.469 349.729 338.141 349.922C337.812 350.115 337.557 350.388 337.375 350.742C337.198 351.096 337.109 351.521 337.109 352.016V357H335.75Z" fill="white" style="fill:white;fill-opacity:1;"/>
<path d="M310.042 364.646L307.815 373.758H307L309.227 364.646H310.042ZM312.283 372.093C311.951 372.093 311.652 372.029 311.385 371.902C311.121 371.775 310.911 371.595 310.755 371.36C310.602 371.126 310.525 370.849 310.525 370.53V370.521C310.525 370.208 310.6 369.941 310.75 369.72C310.9 369.495 311.118 369.319 311.404 369.192C311.691 369.065 312.037 368.991 312.444 368.968L314.378 368.851V369.529L312.547 369.646C312.146 369.669 311.854 369.752 311.668 369.896C311.486 370.039 311.395 370.241 311.395 370.501V370.511C311.395 370.778 311.495 370.986 311.697 371.136C311.899 371.282 312.153 371.355 312.459 371.355C312.749 371.355 313.006 371.299 313.23 371.185C313.455 371.067 313.631 370.91 313.758 370.711C313.888 370.512 313.953 370.288 313.953 370.037V368.396C313.953 368.071 313.854 367.824 313.655 367.654C313.46 367.482 313.165 367.396 312.771 367.396C312.456 367.396 312.197 367.452 311.995 367.566C311.793 367.677 311.658 367.835 311.59 368.04L311.585 368.055H310.735L310.74 368.025C310.786 367.749 310.9 367.508 311.082 367.303C311.268 367.094 311.507 366.933 311.8 366.819C312.093 366.702 312.426 366.644 312.801 366.644C313.23 366.644 313.593 366.714 313.89 366.854C314.189 366.993 314.415 367.195 314.568 367.459C314.725 367.719 314.803 368.032 314.803 368.396V372H313.953V371.224H313.875C313.764 371.409 313.629 371.567 313.47 371.697C313.313 371.827 313.136 371.927 312.938 371.995C312.739 372.06 312.521 372.093 312.283 372.093ZM318.299 372.093C317.856 372.093 317.469 371.98 317.137 371.756C316.805 371.531 316.548 371.215 316.365 370.809C316.183 370.398 316.092 369.92 316.092 369.373V369.363C316.092 368.813 316.183 368.335 316.365 367.928C316.548 367.521 316.803 367.205 317.132 366.98C317.464 366.756 317.853 366.644 318.299 366.644C318.54 366.644 318.766 366.683 318.978 366.761C319.192 366.836 319.383 366.941 319.549 367.078C319.715 367.215 319.845 367.378 319.939 367.566H320.018V364.646H320.867V372H320.018V371.16H319.939C319.832 371.355 319.697 371.523 319.534 371.663C319.371 371.8 319.186 371.906 318.978 371.98C318.769 372.055 318.543 372.093 318.299 372.093ZM318.494 371.341C318.813 371.341 319.088 371.261 319.319 371.102C319.55 370.942 319.728 370.716 319.852 370.423C319.975 370.127 320.037 369.777 320.037 369.373V369.363C320.037 368.956 319.975 368.606 319.852 368.313C319.728 368.021 319.55 367.794 319.319 367.635C319.088 367.475 318.813 367.396 318.494 367.396C318.175 367.396 317.9 367.475 317.669 367.635C317.441 367.791 317.265 368.016 317.142 368.309C317.021 368.602 316.961 368.953 316.961 369.363V369.373C316.961 369.78 317.021 370.132 317.142 370.428C317.265 370.721 317.441 370.947 317.669 371.106C317.9 371.263 318.175 371.341 318.494 371.341ZM322.498 372V366.736H323.348V367.537H323.426C323.543 367.254 323.722 367.034 323.963 366.878C324.207 366.722 324.502 366.644 324.847 366.644C325.084 366.644 325.298 366.683 325.486 366.761C325.675 366.839 325.838 366.948 325.975 367.088C326.111 367.225 326.22 367.384 326.302 367.566H326.38C326.474 367.381 326.601 367.22 326.761 367.083C326.92 366.943 327.104 366.836 327.312 366.761C327.524 366.683 327.75 366.644 327.991 366.644C328.349 366.644 328.652 366.71 328.899 366.844C329.15 366.977 329.34 367.173 329.471 367.43C329.601 367.684 329.666 367.994 329.666 368.362V372H328.816V368.558C328.816 368.297 328.776 368.082 328.694 367.913C328.616 367.741 328.496 367.612 328.333 367.527C328.17 367.439 327.965 367.396 327.718 367.396C327.474 367.396 327.26 367.451 327.078 367.562C326.896 367.672 326.754 367.82 326.653 368.006C326.552 368.188 326.502 368.392 326.502 368.616V372H325.652V368.426C325.652 368.217 325.607 368.037 325.516 367.884C325.428 367.728 325.301 367.607 325.135 367.522C324.972 367.438 324.78 367.396 324.559 367.396C324.331 367.396 324.124 367.456 323.938 367.576C323.756 367.697 323.611 367.859 323.504 368.064C323.4 368.266 323.348 368.491 323.348 368.738V372H322.498ZM331.219 372V366.736H332.068V372H331.219ZM331.648 365.721C331.489 365.721 331.351 365.664 331.233 365.55C331.119 365.433 331.062 365.294 331.062 365.135C331.062 364.972 331.119 364.834 331.233 364.72C331.351 364.606 331.489 364.549 331.648 364.549C331.811 364.549 331.95 364.606 332.063 364.72C332.177 364.834 332.234 364.972 332.234 365.135C332.234 365.294 332.177 365.433 332.063 365.55C331.95 365.664 331.811 365.721 331.648 365.721ZM333.67 372V366.736H334.52V367.527H334.598C334.731 367.247 334.923 367.031 335.174 366.878C335.424 366.722 335.743 366.644 336.131 366.644C336.723 366.644 337.177 366.813 337.493 367.151C337.812 367.487 337.972 367.967 337.972 368.592V372H337.122V368.797C337.122 368.322 337.021 367.97 336.819 367.742C336.621 367.511 336.312 367.396 335.892 367.396C335.612 367.396 335.369 367.456 335.164 367.576C334.959 367.697 334.799 367.868 334.686 368.089C334.575 368.31 334.52 368.576 334.52 368.885V372H333.67Z" fill="white" fill-opacity="0.35" style="fill:white;fill-opacity:0.35;"/>
<circle cx="490" cy="284" r="10" fill="#FF0000" style="fill:#FF0000;fill:color(display-p3 1.0000 0.0000 0.0000);fill-opacity:1;"/>
<rect x="561" y="344" width="332" height="28" rx="14" fill="#383838" fill-opacity="0.5" style="fill:#383838;fill:color(display-p3 0.2189 0.2189 0.2189);fill-opacity:0.5;"/>
<g filter="url(#filter0_d_1618_448)">
<rect x="821" y="590" width="85" height="36" rx="15" fill="#787880" fill-opacity="0.24" style="fill:#787880;fill:color(display-p3 0.4706 0.4706 0.5020);fill-opacity:0.24;" shape-rendering="crispEdges"/>
<path d="M849.637 614.282C848.763 614.282 847.999 614.141 847.346 613.859C846.699 613.571 846.184 613.178 845.802 612.68C845.426 612.177 845.207 611.601 845.146 610.954L845.138 610.862H846.632L846.641 610.954C846.679 611.352 846.832 611.698 847.097 611.991C847.368 612.279 847.728 612.503 848.176 612.664C848.63 612.824 849.145 612.904 849.72 612.904C850.263 612.904 850.744 612.819 851.165 612.647C851.591 612.47 851.925 612.226 852.169 611.917C852.412 611.607 852.534 611.25 852.534 610.846V610.837C852.534 610.339 852.352 609.922 851.986 609.584C851.621 609.241 851.026 608.978 850.202 608.795L848.874 608.505C847.673 608.239 846.798 607.83 846.25 607.276C845.708 606.717 845.437 606.004 845.437 605.135V605.126C845.443 604.462 845.622 603.876 845.977 603.367C846.336 602.858 846.832 602.459 847.462 602.171C848.099 601.884 848.829 601.74 849.654 601.74C850.451 601.74 851.156 601.884 851.77 602.171C852.385 602.454 852.872 602.835 853.231 603.317C853.597 603.798 853.799 604.338 853.837 604.936L853.846 605.052H852.352L852.335 604.944C852.28 604.59 852.136 604.277 851.903 604.006C851.671 603.729 851.361 603.511 850.974 603.35C850.586 603.19 850.132 603.112 849.612 603.118C849.114 603.118 848.666 603.195 848.268 603.35C847.869 603.505 847.551 603.729 847.313 604.022C847.081 604.31 846.964 604.664 846.964 605.085V605.093C846.964 605.569 847.141 605.97 847.496 606.297C847.85 606.623 848.434 606.875 849.247 607.052L850.575 607.351C851.411 607.534 852.083 607.772 852.592 608.065C853.101 608.358 853.472 608.718 853.705 609.144C853.943 609.565 854.062 610.063 854.062 610.638V610.646C854.062 611.394 853.879 612.038 853.514 612.581C853.148 613.123 852.634 613.543 851.97 613.842C851.306 614.136 850.528 614.282 849.637 614.282ZM859.591 614.158C858.739 614.158 858.006 613.97 857.392 613.593C856.783 613.217 856.313 612.686 855.981 612C855.654 611.308 855.491 610.494 855.491 609.559V609.551C855.491 608.627 855.654 607.816 855.981 607.119C856.313 606.421 856.78 605.876 857.383 605.483C857.987 605.09 858.692 604.894 859.5 604.894C860.314 604.894 861.011 605.082 861.592 605.458C862.179 605.835 862.627 606.361 862.937 607.036C863.252 607.705 863.41 608.486 863.41 609.376V609.941H856.238V608.787H862.671L861.957 609.841V609.269C861.957 608.566 861.852 607.987 861.642 607.534C861.431 607.08 861.141 606.742 860.77 606.521C860.399 606.294 859.973 606.181 859.492 606.181C859.01 606.181 858.579 606.3 858.197 606.538C857.821 606.77 857.522 607.116 857.3 607.575C857.079 608.035 856.968 608.599 856.968 609.269V609.841C856.968 610.478 857.076 611.023 857.292 611.477C857.508 611.925 857.815 612.271 858.214 612.514C858.612 612.752 859.082 612.871 859.625 612.871C860.029 612.871 860.38 612.816 860.679 612.705C860.978 612.594 861.224 612.453 861.418 612.282C861.611 612.11 861.747 611.936 861.824 611.759L861.858 611.684H863.302L863.285 611.75C863.208 612.055 863.069 612.351 862.87 612.639C862.677 612.921 862.425 613.178 862.115 613.411C861.805 613.638 861.437 613.82 861.011 613.958C860.59 614.091 860.117 614.158 859.591 614.158ZM865.221 614V605.052H866.665V606.396H866.798C867.025 605.921 867.352 605.553 867.778 605.292C868.204 605.027 868.746 604.894 869.405 604.894C870.412 604.894 871.184 605.182 871.721 605.757C872.263 606.327 872.534 607.144 872.534 608.206V614H871.09V608.555C871.09 607.747 870.918 607.149 870.575 606.762C870.237 606.369 869.712 606.172 868.998 606.172C868.522 606.172 868.11 606.275 867.761 606.479C867.412 606.684 867.141 606.975 866.948 607.351C866.759 607.727 866.665 608.178 866.665 608.704V614H865.221ZM878.022 614.158C877.27 614.158 876.611 613.967 876.047 613.585C875.482 613.203 875.045 612.666 874.735 611.975C874.425 611.277 874.271 610.464 874.271 609.534V609.518C874.271 608.582 874.425 607.769 874.735 607.077C875.045 606.385 875.48 605.849 876.039 605.467C876.603 605.085 877.264 604.894 878.022 604.894C878.432 604.894 878.817 604.96 879.176 605.093C879.542 605.221 879.865 605.4 880.147 605.633C880.43 605.865 880.651 606.142 880.812 606.463H880.944V601.499H882.389V614H880.944V612.572H880.812C880.629 612.904 880.399 613.189 880.123 613.427C879.846 613.66 879.53 613.84 879.176 613.967C878.822 614.094 878.438 614.158 878.022 614.158ZM878.355 612.879C878.897 612.879 879.364 612.744 879.757 612.473C880.15 612.201 880.452 611.817 880.662 611.319C880.872 610.815 880.978 610.22 880.978 609.534V609.518C880.978 608.826 880.872 608.231 880.662 607.733C880.452 607.235 880.15 606.85 879.757 606.579C879.364 606.308 878.897 606.172 878.355 606.172C877.812 606.172 877.345 606.308 876.952 606.579C876.564 606.845 876.265 607.227 876.055 607.725C875.85 608.223 875.748 608.82 875.748 609.518V609.534C875.748 610.226 875.85 610.824 876.055 611.327C876.265 611.825 876.564 612.21 876.952 612.481C877.345 612.747 877.812 612.879 878.355 612.879Z" fill="#EBEBF5" fill-opacity="0.3" style="fill:#EBEBF5;fill:color(display-p3 0.9216 0.9216 0.9608);fill-opacity:0.3;"/>
</g>
<defs>
<filter id="filter0_d_1618_448" x="817" y="590" width="93" height="44" filterUnits="userSpaceOnUse" color-interpolation-filters="sRGB">
<feFlood flood-opacity="0" result="BackgroundImageFix"/>
<feColorMatrix in="SourceAlpha" type="matrix" values="0 0 0 0 0 0 0 0 0 0 0 0 0 0 0 0 0 0 127 0" result="hardAlpha"/>
<feOffset dy="4"/>
<feGaussianBlur stdDeviation="2"/>
<feComposite in2="hardAlpha" operator="out"/>
<feColorMatrix type="matrix" values="0 0 0 0 0 0 0 0 0 0 0 0 0 0 0 0 0 0 0.25 0"/>
<feBlend mode="normal" in2="BackgroundImageFix" result="effect1_dropShadow_1618_448"/>
<feBlend mode="normal" in="SourceGraphic" in2="effect1_dropShadow_1618_448" result="shape"/>
</filter>
</defs>
</svg>
